<?xml version="1.0" standalone="no"?>
<!DOCTYPE svg PUBLIC "-//W3C//DTD SVG 20010904//EN"
 "http://www.w3.org/TR/2001/REC-SVG-20010904/DTD/svg10.dtd">
<svg version="1.0" xmlns="http://www.w3.org/2000/svg"
 width="348.000000pt" height="348.000000pt" viewBox="0 0 348.000000 348.000000"
 preserveAspectRatio="xMidYMid meet">
<metadata>
Created by potrace 1.11, written by Peter Selinger 2001-2013
</metadata>
<g transform="translate(0.000000,348.000000) scale(0.100000,-0.100000)"
fill="#000000" stroke="none">
<path d="M2560 3392 c-42 -43 -183 -123 -286 -162 -45 -17 -156 -132 -214
-224 -55 -85 -73 -106 -89 -106 -6 0 -11 -3 -11 -8 0 -4 -16 -16 -36 -27 -20
-11 -68 -54 -106 -97 -55 -60 -82 -82 -121 -96 l-50 -19 -46 24 c-97 49 -209
126 -520 357 -132 98 -194 119 -266 91 -58 -22 -76 -46 -113 -152 -41 -119
-49 -151 -124 -500 -21 -97 -24 -103 -48 -103 -33 -1 -63 -18 -90 -53 -21 -26
-24 -74 -9 -127 3 -12 -5 -15 -36 -13 -22 1 -53 2 -69 3 -16 1 -34 -4 -39 -9
-6 -6 -22 -11 -36 -11 -15 0 -37 -9 -51 -20 -14 -11 -35 -20 -47 -20 -12 0
-30 -11 -41 -25 -11 -14 -24 -25 -29 -25 -4 0 -21 -12 -36 -26 -43 -40 -35
-74 23 -92 31 -10 51 -23 62 -43 29 -50 75 -71 139 -65 55 5 56 5 52 -19 -5
-26 24 -74 45 -75 7 0 -9 -29 -36 -63 -93 -122 -127 -221 -125 -367 1 -145 29
-264 84 -360 24 -41 46 -77 49 -80 3 -3 21 -25 39 -50 53 -69 159 -158 230
-192 46 -22 60 -33 52 -41 -21 -21 -11 -54 26 -89 21 -20 46 -45 55 -57 12
-14 29 -21 53 -21 24 0 35 -5 35 -15 0 -8 8 -23 19 -34 10 -10 18 -30 18 -45
0 -37 30 -66 66 -66 l30 0 -21 -23 c-12 -13 -25 -43 -28 -68 -6 -41 -3 -49 25
-82 55 -63 81 -65 228 -18 172 54 236 63 338 44 106 -20 182 -14 205 17 l17
23 32 -22 c64 -46 93 -47 191 -3 118 52 239 53 484 2 56 -11 109 -1 147 29 24
19 25 19 98 -16 48 -23 81 -33 96 -29 49 12 109 120 106 191 -4 95 -14 136
-37 154 -13 10 -24 24 -24 30 0 21 -33 62 -62 77 -28 14 -31 14 -63 -10 -19
-14 -46 -26 -62 -26 -26 0 -109 -20 -143 -34 -20 -8 -23 52 -4 72 8 7 14 19
14 27 0 7 10 15 23 19 12 3 42 24 67 47 25 24 57 44 73 46 19 2 49 24 90 66
34 34 87 79 118 99 124 82 219 220 227 330 2 32 8 58 12 58 4 0 15 -11 24 -25
38 -58 92 -67 99 -17 3 23 10 13 45 -60 40 -81 70 -118 98 -118 20 0 24 28 9
57 -8 15 -15 35 -15 44 0 9 -9 44 -21 80 -14 42 -17 65 -10 67 6 2 11 15 11
29 0 14 7 31 16 37 19 14 8 47 -15 45 -32 -3 -61 14 -67 38 -9 36 -56 118 -87
152 -39 44 -95 69 -171 77 -62 6 -66 8 -66 32 0 13 -9 39 -20 58 -18 29 -19
38 -9 78 6 25 9 63 7 85 -3 34 0 41 19 50 24 11 32 54 13 66 -5 3 -10 14 -10
24 0 10 -9 26 -21 37 -17 15 -23 16 -40 6 -17 -11 -24 -9 -51 13 -38 32 -101
65 -125 65 -12 0 -6 8 18 24 27 19 52 25 98 27 37 1 66 -2 73 -9 17 -17 124
-15 158 3 57 29 67 91 23 137 -24 25 -26 31 -15 49 15 24 5 42 -36 62 -30 14
-41 37 -18 37 8 0 23 14 32 31 14 28 14 39 0 118 -8 47 -20 124 -25 171 -9 73
-14 88 -37 108 -26 23 -52 25 -104 11 -11 -3 -14 3 -12 21 1 13 -2 36 -8 50
-11 26 -56 54 -71 44 -5 -3 -30 8 -55 25 -25 17 -47 31 -50 31 -3 0 -16 10
-30 23 -24 23 -24 24 -9 61 9 22 15 61 14 94 -2 60 -31 132 -52 131 -6 0 -32
-21 -57 -47z m-1563 -709 c104 -79 129 -99 144 -115 9 -10 19 -18 23 -18 10 0
117 -90 207 -174 l77 -71 9 -75 c6 -41 10 -88 9 -105 -1 -28 -4 -30 -38 -31
-46 -1 -67 18 -47 43 9 10 14 40 14 77 0 48 -5 68 -22 89 -34 43 -66 65 -116
79 -57 15 -117 -2 -152 -44 -19 -23 -32 -28 -67 -28 -101 0 -152 -39 -191
-145 l-18 -50 6 47 c4 29 1 56 -6 70 -9 17 -9 23 0 26 22 7 51 46 51 68 0 14
-14 34 -35 51 l-35 29 56 134 c31 74 59 145 61 158 7 30 13 28 70 -15z m273
-447 c0 -3 -4 -8 -10 -11 -5 -3 -10 -1 -10 4 0 6 5 11 10 11 6 0 10 -2 10 -4z
m-225 -816 c10 -11 16 -20 13 -20 -3 0 -13 9 -23 20 -10 11 -16 20 -13 20 3 0
13 -9 23 -20z m279 1 c3 -5 -1 -11 -9 -14 -9 -4 -12 -1 -8 9 6 16 10 17 17 5z
m64 -5 c-7 -8 -15 -12 -17 -11 -5 6 10 25 20 25 5 0 4 -6 -3 -14z m132 10 c0
-3 -4 -8 -10 -11 -5 -3 -10 -1 -10 4 0 6 5 11 10 11 6 0 10 -2 10 -4z m-275
-24 c-3 -3 -11 0 -18 7 -9 10 -8 11 6 5 10 -3 15 -9 12 -12z m-907 -353 c-3
-8 -7 -3 -11 10 -4 17 -3 21 5 13 5 -5 8 -16 6 -23z m198 -257 c-4 -3 -14 2
-24 12 -16 18 -16 18 6 6 13 -6 21 -14 18 -18z m1807 -39 c-7 -2 -19 -2 -25 0
-7 3 -2 5 12 5 14 0 19 -2 13 -5z m-463 -182 c0 -35 -12 -39 -45 -19 -38 22
-69 18 -85 -13 -7 -13 -21 -19 -44 -19 -18 0 -59 -8 -90 -19 -45 -15 -62 -16
-81 -7 -34 15 -31 26 8 27 17 0 68 13 112 29 81 28 225 42 225 21z"/>
</g>
</svg>
